# xmcd
#
# Track frame offsets:
#	150
#	17837
#	38379
#	52194
#	66242
#	86196
#	105587
#	127910
#	145247
#	162892
#	183426
#	197194
#	211229
#	231144
#	250520
#	272767
#
# Disc length: 3867 seconds
#
# Revision: 2
# Processed by: cddbd v1.5.1PL2 Copyright (c) Steve Scherf et al.
# Submitted via: audiograbber 1.83.01
#
DISCID=dd0f1910
DTITLE=Sound Choice - sc3347
DYEAR=1900
DGENRE=
TTITLE0=Andrews, Jessica - There's More To Me Than You
TTITLE1=McGraw, Tim - She's My Kind Of Rain
TTITLE2=Cochran, Tammy - Love Won't Let Me
TTITLE3=Twain, Shania - Up! (Country)
TTITLE4=Montgomery Gentry - Speed
TTITLE5=Twain, Shania - When You Kiss Me
TTITLE6=Urban, Keith - Raining On Sunday
TTITLE7=Byrd, Tracy - Lately Been Dreamin' 'Bout Babies
TTITLE8=Andrews, Jessica - There's More To Me Than You (Vocal)
TTITLE9=McGraw, Tim - She's' My Kind Of Rain (Vocal)
TTITLE10=Cochran, Tammy - Love Won't Let Me (Vocal)
TTITLE11=Twain, Shania - Up! (Country) (Vocal)
TTITLE12=Montgomery Gentry - Speed (Vocal)
TTITLE13=Twain, Shania - When You Kiss Me (Vocal)
TTITLE14=Urban, Keith - Raining On Sunday (Vocal)
TTITLE15=Byrd, Tracy - Lately Benn Dreamin' 'Bout Babies (Vocal)
EXTD=
EXTT0=
EXTT1=
EXTT2=
EXTT3=
EXTT4=
EXTT5=
EXTT6=
EXTT7=
EXTT8=
EXTT9=
EXTT10=
EXTT11=
EXTT12=
EXTT13=
EXTT14=
EXTT15=
PLAYORDER=
